<?xml version="1.0" standalone="no"?>
<!DOCTYPE svg PUBLIC "-//W3C//DTD SVG 20010904//EN"
 "http://www.w3.org/TR/2001/REC-SVG-20010904/DTD/svg10.dtd">
<svg version="1.0" xmlns="http://www.w3.org/2000/svg"
 width="559.000000pt" height="559.000000pt" viewBox="0 0 559.000000 559.000000"
 preserveAspectRatio="xMidYMid meet">
<metadata>
Created by potrace 1.11, written by Peter Selinger 2001-2013
</metadata>
<g transform="translate(0.000000,559.000000) scale(0.100000,-0.100000)"
fill="#000000" stroke="none">
<path d="M450 4921 l0 -56 -55 1 -56 1 3 -56 3 -56 50 0 50 0 3 -57 3 -56 37
0 c74 1 72 3 72 -56 l0 -54 38 0 c75 0 72 3 72 -57 l0 -55 55 0 55 0 0 -55 0
-55 55 0 55 0 0 -55 0 -55 -110 0 -110 0 0 55 c0 37 -4 55 -12 56 -7 0 -56 2
-108 2 l-95 2 -5 55 c-5 53 -6 54 -35 53 -80 -2 -75 2 -75 -58 l0 -56 -42 2
c-24 1 -49 1 -55 0 -10 -1 -13 -30 -13 -111 l0 -110 55 0 55 0 0 -110 0 -110
55 0 55 0 0 -55 0 -55 110 0 110 0 0 -55 0 -55 -110 0 -110 0 0 -55 0 -55 -55
0 -55 0 0 -168 0 -167 55 -2 c41 -1 55 2 55 12 0 9 6 12 15 9 18 -7 20 -25 3
-22 -9 2 -14 -15 -16 -54 l-3 -57 48 0 c26 1 53 5 58 10 8 5 10 -13 7 -57 l-4
-65 224 3 224 3 -2 -45 c-2 -65 2 -70 52 -68 53 2 59 -3 60 -53 1 -21 2 -44 3
-50 0 -6 22 -9 54 -7 50 3 52 4 51 31 -1 22 2 25 12 16 18 -15 18 -49 1 -49
-10 0 -13 -26 -12 -107 l0 -108 -56 -3 -56 -3 2 -57 c1 -36 6 -56 13 -55 6 2
9 -4 6 -12 -7 -18 -25 -20 -22 -2 2 9 -26 13 -109 15 l-113 3 0 -56 0 -55 -55
0 -55 0 0 -55 0 -55 -55 0 -55 0 0 -279 0 -279 53 1 52 2 5 -55 5 -55 48 -1
c26 0 50 -3 53 -7 3 -3 6 -28 6 -55 l-1 -49 169 0 168 -1 -2 50 c-3 56 6 64
72 62 l39 -1 1 112 0 111 -54 -1 c-30 -1 -54 1 -55 4 -7 38 -2 211 6 214 6 2
55 3 110 2 l100 0 1 -333 2 -332 -54 3 c-34 2 -54 0 -55 -7 -1 -6 -2 -51 -4
-101 -1 -49 -3 -96 -4 -102 -1 -9 -19 -13 -54 -13 l-52 0 0 -110 0 -110 277 0
278 0 0 55 0 55 55 0 55 0 0 55 0 55 54 0 54 0 4 52 c5 85 -5 173 -20 170 -10
-2 -10 2 -2 18 11 20 21 27 19 13 -5 -28 4 -33 56 -33 50 0 55 2 56 23 0 12 0
86 -1 165 -1 111 2 142 12 143 7 1 32 1 56 2 31 0 42 4 43 16 2 33 6 86 8 92
0 3 25 6 53 5 l53 -1 -2 35 c-4 80 -20 75 222 75 138 0 216 -3 216 -10 1 -5 2
-55 3 -110 l1 -100 35 -1 c84 -3 79 1 77 -56 l-2 -53 55 -1 c30 -1 59 4 63 10
4 6 5 0 2 -14 -11 -46 -12 -85 -3 -102 7 -15 5 -17 -14 -10 -20 6 -53 8 -93 3
-6 -1 -10 -44 -9 -111 l1 -110 -56 0 -56 0 0 -110 0 -110 57 0 56 0 -2 -55 -2
-55 113 0 113 0 0 55 0 55 55 0 55 0 0 -55 0 -55 219 0 c166 0 220 3 223 13 3
6 4 30 3 52 l-1 40 55 5 56 5 -1 53 -1 52 54 0 c35 0 53 4 54 13 1 6 2 30 3
52 l1 40 55 5 55 5 -1 150 c-1 83 -2 157 -3 166 -1 12 -12 15 -51 14 -29 -1
-51 3 -51 9 -1 6 -2 106 -3 221 l-1 211 55 -1 55 0 0 53 c-1 28 2 53 5 53 3 1
21 3 40 4 66 5 66 6 65 -110 -1 -115 -6 -107 68 -108 20 -1 38 -6 38 -11 1 -6
3 -27 4 -46 1 -19 3 -40 4 -46 0 -6 41 -10 111 -10 106 0 111 1 109 20 -1 12
-1 37 0 56 l1 35 108 0 107 0 5 55 5 55 53 0 52 -1 0 56 0 56 55 0 54 0 3 -56
3 -55 108 -1 c68 0 107 4 108 10 1 6 2 31 3 56 1 44 2 45 36 46 83 3 79 0 75
45 -5 59 0 66 52 68 26 1 49 4 52 7 3 3 6 51 6 107 l0 102 55 5 55 5 0 102 c0
56 -3 105 -8 109 -4 4 -27 7 -51 5 -49 -2 -53 3 -51 67 1 23 -1 42 -4 43 -3 0
-30 1 -58 2 l-53 2 1 -45 c2 -72 3 -70 -48 -69 -27 1 -76 1 -110 0 l-63 -1 0
-55 0 -55 -53 0 -54 0 0 110 0 110 52 0 c59 0 63 4 59 68 -2 37 0 42 19 43 12
0 37 1 56 2 l34 2 1 163 c1 101 -3 163 -9 163 -5 1 -26 3 -45 4 -19 1 -41 3
-48 4 -8 0 -13 12 -12 29 1 15 2 39 1 54 l-1 26 -107 -1 -108 -1 -5 -56 -5
-55 -52 1 -53 0 0 -56 0 -56 -52 1 -53 0 -5 55 -5 54 -50 1 -50 0 -3 57 -3 56
-54 -2 -54 -1 -3 55 -3 55 -49 2 c-26 1 -51 4 -54 8 -3 3 -5 28 -3 55 l2 49
-58 3 -58 3 0 50 0 50 -110 3 -110 3 -2 -48 c0 -26 -1 -52 -2 -58 -1 -6 -43
-9 -111 -7 -101 3 -110 2 -108 -15 0 -10 0 -36 0 -58 l-2 -41 -55 3 -55 2 0
-55 c0 -36 -4 -54 -12 -55 -7 -1 -32 -1 -55 -2 l-43 0 0 -57 0 -56 -55 1 -55
2 0 -57 0 -57 -110 1 -110 0 0 53 c0 35 -4 53 -12 54 -7 1 -78 3 -158 4 -80 1
-149 3 -155 4 -11 1 -12 88 0 99 3 4 28 7 53 7 l47 0 5 55 5 55 50 0 50 0 0
110 0 110 -52 3 -53 3 0 55 0 54 -55 0 c-60 0 -56 4 -59 -70 -1 -35 -1 -35
-56 -40 l-55 -5 0 -47 c0 -26 -3 -50 -7 -53 -12 -12 -199 -9 -207 4 -4 6 -7
56 -6 111 l2 100 -58 0 -57 0 2 53 1 52 -55 5 -55 5 -1 40 c-1 22 -2 46 -3 53
-1 9 -30 12 -111 12 l-110 0 0 55 0 55 -55 0 -55 0 0 55 0 55 -55 0 -55 0 0
110 c0 122 6 113 -72 112 l-38 -1 0 57 0 58 -52 -1 c-29 0 -56 -4 -59 -8 -3
-4 -4 -28 -3 -52 2 -25 0 -46 -4 -47 -4 -1 -28 -2 -54 -3 l-48 -2 0 53 c0 33
-5 53 -12 56 -7 2 -57 4 -110 3 -109 -1 -103 -5 -98 73 1 20 -3 32 -12 33 -7
1 -51 3 -98 4 -47 1 -92 3 -100 4 -12 1 -16 12 -15 44 2 65 2 66 -88 65 -142
0 -139 -1 -137 25 1 12 2 36 1 53 l-1 31 -55 -1 -55 -2 0 57 0 56 -110 0 -110
1 0 -57z m702 -2049 c-28 -4 -31 -2 -37 27 l-4 22 32 -23 c31 -22 31 -23 9
-26z m1563 -304 c-3 -12 -10 -26 -16 -32 -9 -8 -10 -5 -5 14 4 14 8 30 8 37 1
7 5 10 9 7 4 -2 6 -14 4 -26z m-1225 -468 c0 -5 -4 -10 -9 -10 -6 0 -13 5 -16
10 -3 6 1 10 9 10 9 0 16 -4 16 -10z m861 -70 c6 -16 15 -28 19 -25 5 3 19 1
32 -4 19 -8 14 -9 -24 -8 -36 1 -44 4 -36 14 7 9 7 13 0 13 -6 0 -10 9 -9 20
2 27 6 25 18 -10z m-243 -334 c-1 -27 -6 -34 -21 -33 -16 1 -16 3 -3 13 9 6
16 21 16 33 0 11 2 21 5 21 3 0 5 -15 3 -34z m-1308 -31 c11 -13 10 -14 -4 -9
-9 3 -16 10 -16 15 0 13 6 11 20 -6z"/>
</g>
</svg>
